<?xml version="1.0" encoding="UTF-8"?>
<svg id="Layer_2" data-name="Layer 2" xmlns="http://www.w3.org/2000/svg" viewBox="0 0 623.7 205.06">
  <defs>
    <style>
      .cls-1 {
        fill: #fccc35;
      }

      .cls-1, .cls-2, .cls-3, .cls-4, .cls-5 {
        stroke-width: 0px;
      }

      .cls-2 {
        fill: #fccc33;
      }

      .cls-3 {
        fill: #fccc34;
      }

      .cls-4 {
        fill: #fffefb;
      }

      .cls-5 {
        fill: #fff;
      }
    </style>
  </defs>
  <g id="Layer_1-2" data-name="Layer 1">
    <g id="fAQ01Q.tif">
      <g>
        <path class="cls-2" d="M157.3,0c.43,5.31-2.09,10.04-2.97,15.1-.67,3.88-2.64,7.41-3.07,11.37-.19,1.76-1.38,2.55-3.1,2.57-1.75.02-3.49.01-5.24.01-7.82,0-7.65.05-10.01,7.34-3.16,9.77-6.98,19.34-9.85,29.18-2.85,9.76-6.54,19.23-9.43,28.98-3.81,12.89-8.72,25.44-12.84,38.24-3.47,10.81-7.53,21.43-10.45,32.42-1.35,5.09-1.43,5.06,3.96,5.06,57.77,0,115.55,0,173.32,0,4.95,0,4.99.11,2.9,4.65-2.36,5.13-4.66,10.29-6.98,15.43-1.21,2.69-2.92,3.93-6.23,3.92-64.01-.12-128.03-.09-192.04-.1-4.66,0-5.42-1.22-3.79-5.57,3.44-9.16,6.89-18.32,9.89-27.65,2.62-8.14,5.83-16.09,8.99-24.04,1.01-2.54.61-3.29-2.14-3.27-12.1.08-24.21.06-36.31,0-2.5-.01-3.67,1.06-4.49,3.44-2.99,8.66-6.51,17.15-9.33,25.86-2.87,8.88-6.33,17.55-9.31,26.38-.59,1.74-1.15,3.49-1.75,5.22-.46,1.34-1.37,1.86-2.84,1.83-3.99-.08-7.99-.11-11.98,0-1.91.06-2.28-.78-2.26-2.45.07-4.52.9-8.66,3.13-12.81,3.24-6.02,4.67-12.84,6.82-19.33,2.74-8.27,5.89-16.43,8.18-24.82,2.65-9.68,6.18-19.05,9.2-28.6,3.46-10.95,7.16-21.86,10.74-32.79,3.15-9.64,6.43-19.24,9.5-28.91,1.98-6.24,3.92-12.51,6.27-19.17-2.75,0-5.31.02-7.87,0-3.83-.04-4.3-.83-3.11-4.47C45.35,15.37,47.76,7.68,50.21,0c10.98,0,21.97,0,32.95,0,1.23,1.55.4,3.12-.07,4.61-4.16,13.02-8.58,25.95-12.78,38.95-5.46,16.91-11.34,33.67-16.44,50.7-1.17,3.92-2.9,7.67-4.01,11.62-1.03,3.67-.68,4.32,2.98,4.34,10.72.06,21.44-.05,32.17.07,2.83.03,3.93-1.34,4.76-3.7,5.43-15.48,10.53-31.07,15.69-46.64,6.25-18.87,12.44-37.75,19.15-56.46.47-1.3.87-2.6,2.01-3.5h30.71Z"/>
        <path class="cls-5" d="M126.6,0c-2.9,9.2-6,18.32-9.31,27.39-3.26,8.92-5.73,18.12-8.72,27.15-3.1,9.39-6.45,18.69-9.6,28.06-2.57,7.63-5.13,15.27-7.47,22.97-1.72,5.66-1.55,5.72-7.7,5.72-10.86,0-21.72,0-32.57,0-3.31,0-4.17-1.12-3.11-4.24,3.82-11.21,7.77-22.38,11.5-33.63,3.66-11.02,6.98-22.16,10.72-33.16,2.49-7.31,4.63-14.73,7.35-21.98C79.91,12.34,81.36,6.11,83.16,0c14.48,0,28.96,0,43.44,0Z"/>
        <path class="cls-3" d="M344.17,29.77c4.95-3.34,9.44-4.92,13.77-6.86,6.98-3.13,20.17-.09,24.43,6.07,3.2,4.63,2.74,10.25,1.14,15.1-4.47,13.52-9.76,26.78-14.53,40.21-4.77,13.42-9.22,26.95-13.98,40.38-2.48,6.98-3.98,14.44-9.86,19.84-5.12,4.71-10.81,8.34-17.75,9.3-11.54,1.6-18.14-5.47-22.42-14.82-1.38,4.28-2.63,8.16-3.89,12.03-2.69,8.28-5.41,16.54-8.09,24.82-2.42,7.48-4.77,14.99-7.25,22.45-.67,2.01-.19,2.79,1.92,2.7,1.49-.07,2.99,0,4.49,0,108.7,0,217.41,0,326.11.08,1.92,0,5.45-1.41,5.44,1.87,0,3.43-3.55,1.69-5.37,1.69-204.18.1-408.36.1-612.54.1-1,0-2,.01-3,0-1.28-.03-2.77-.07-2.66-1.8.1-1.47,1.41-1.9,2.76-1.94,1.12-.03,2.25-.02,3.37-.02,84.99,0,169.98,0,254.97,0,6.44,0,6.39-.02,8.44-6.05,3.87-11.39,7.66-22.81,11.74-34.14,5.48-15.23,10.3-30.69,15.54-46,4.4-12.84,9.07-25.59,13.48-38.43,3.54-10.3,6.56-20.79,10.39-30.98,2.54-6.77,4.33-13.78,7.15-20.45.53-1.25,1.19-1.81,2.48-1.69,3.58.31,7.22.37,10.73,1.05,2.15.42,5.97.32,2.97,5.51Z"/>
        <path class="cls-2" d="M411.97,152.49c-7.24-.61-13.96.34-20.69-.68-9.65-1.46-13.3-8.69-13.04-17.68.18-5.98,2.76-11.22,4.47-16.7,2.88-9.24,6.4-18.29,9.57-27.44,4.28-12.34,8.46-24.72,12.74-37.07,1.96-5.66,3.19-11.62,6.38-16.79,3.5-5.67,7.84-10.48,14.13-13.26,1.76-.78,3.48-1.2,5.39-1.19,7.36.04,14.73.04,22.09.02,7.03-.02,12.83,6.03,14.51,12.88,2.3,9.36-1.57,17.25-4.26,25.52-3.1,9.55-7.16,18.75-9.66,28.53-2.3,8.97-6.44,17.53-16.03,20.3-9.59,2.77-19.58,3.45-28.76-2.64-1.45-.96-1.85-4.13-4.48-2.8-1.96.99-1.07,3.43-1.87,5.04-2.24,4.58-2.95,9.64-4.55,14.42-1.39,4.16,1.33,7.15,5.92,7.15,10.36.01,20.72-.04,31.08-.03,3.74,0,4.76,1.48,3.41,4.78-2.13,5.21-4.39,10.39-6.33,15.67-.62,1.69-1.44,2-2.99,1.98-5.85-.06-11.71-.02-17.03-.02Z"/>
        <path class="cls-2" d="M157.17,153.83c-5.61,0-11.23.03-16.84-.01-5.45-.04-11.06-4.8-13.08-9.87-3.3-8.31-.15-15.72,2.39-23.28,3.71-11.04,7.49-22.04,11.32-33.04,3.03-8.72,6.13-17.41,9.26-26.09,2.54-7.05,4.43-14.33,7.37-21.24,3.61-8.47,9.7-14.15,18.43-17.19,1.98-.69,3.88-.76,5.85-.71,5.32.14,10.61.48,15.98.05,7.68-.62,13.85,4.75,16.53,11.99,2.82,7.62.1,14.34-2.06,21.18-2.54,8.04-5.48,15.95-8.46,23.84-2.97,7.86-4.22,16.32-9.25,23.46-8.47,12.04-29.35,14.93-40.27,2.27-.48-.56-.87-1.36-1.73-1.14-.78.2-1.09,1.01-1.21,1.72-1.07,6.33-3.85,12.08-6.01,18.05-1.58,4.37.03,6.8,4.61,7.72,4.59.93,9.13.47,13.74.24,6.47-.32,12.97-.06,19.46-.16,2.47-.04,3.33,1.17,2.51,3.23-2.42,6.08-5.04,12.07-7.6,18.09-.6,1.42-1.93.86-2.96.86-5.99.04-11.98.02-17.97.02Z"/>
        <path class="cls-2" d="M257.68,37.82c8.73-4.06,16.07-9.81,24.7-13.25,3.88-1.55,7.82-1.5,11.75-1.17,3.96.33,6.32,4.17,6.94,8.89.96,7.39-2.06,13.76-4.43,20.34-1.96,5.44-4.18,10.79-5.92,16.3-.53,1.69-1.22,2.26-2.73,2.27-6.61.02-13.22,0-19.83.01-2.69,0-2.63-1.57-2.14-3.53,1.09-4.31,3.29-8.17,4.82-12.3.49-1.32.98-2.69-.19-3.8-1.06-1.01-2.72-1.35-3.87-.72-4.72,2.56-9.94,4.23-14.11,7.8-3.45,2.95-4.8,7.16-6.11,11.15-2.51,7.66-5.34,15.21-8,22.82-2.06,5.91-3.74,11.95-5.76,17.88-2.34,6.87-4.99,13.64-7.29,20.52-2.06,6.15-4.67,12.12-6.2,18.46-.66,2.73-2,4.8-5.61,4.48-4.09-.35-8.23-.17-12.34-.05-2.84.08-3.24-1.38-2.44-3.53,3.64-9.79,7.44-19.52,11.03-29.33,4.23-11.56,8.3-23.17,12.45-34.76,2.52-7.06,5.07-14.11,7.58-21.18,3.1-8.77,6.15-17.55,9.25-26.32,1.72-4.87,3.52-9.71,5.28-14.56.94-2.58,3.3-2.82,5.18-2.18,3.04,1.04,6.05,1.17,9.16,1.27,3.09.1,3.7,1.31,2.38,4.02-1.56,3.2-2.64,6.57-3.55,10.46Z"/>
        <path class="cls-2" d="M561.04,191.96c-4.82,0-9.27-.05-13.72.03-1.69.03-2.01-.71-2.11-2.23-.41-6.31-1.05-12.6-1.42-18.91-.13-2.26-1.03-2.91-3.22-2.96-9.03-.23-8.89-.29-9.66,8.96-.35,4.21-.8,8.41-.6,12.64.09,2-.66,2.58-2.58,2.52-3.61-.12-7.23-.12-10.85,0-2.2.07-2.4-.5-1.72-2.56,6.15-18.36,8.93-37.44,11.94-56.46.71-4.5,1.34-9.11.9-13.72-.19-2.01.37-2.89,2.62-2.81,4.73.16,9.48.11,14.21.02,1.87-.04,2.64.43,2.59,2.48-.33,14.23,2.95,27.99,5.6,41.85,2,10.42,4.16,20.78,8,31.17Z"/>
        <path class="cls-2" d="M486.07,131.71c-2.7-1.59-4.29-3.62-6.7-4.37-3.17-.99-6.3-.99-8.73,1.42-2.33,2.3-3.06,5.12-1.93,8.51,1.93,5.79,6.43,9.65,10.13,14.08,5.02,6,9.13,12.37,9.78,20.38.62,7.53-1.5,14.17-8.06,18.4-6.37,4.11-13.17,3.61-19.85.24-2.23-1.13-3.33-2.67-3.14-5.3.22-2.95.05-5.92.05-9.38,3.03,2.1,5.44,4.34,8.75,5.22,3.15.84,5.93.75,8.31-1.57,2.56-2.5,2.93-5.61,2.06-8.93-1.48-5.63-5.45-9.63-9.2-13.76-4.6-5.08-8.76-10.36-10.37-17.3-2.83-12.23,3.7-22.41,15.63-23.96,4.11-.54,7.85.73,11.4,2.65,1.27.68,1.97,1.65,1.9,3.28-.14,3.22-.04,6.45-.04,10.39Z"/>
        <path class="cls-3" d="M587.19,175.78c2.46,1.6,4.31,3.04,6.37,4.09,3.45,1.76,7.1,2.65,10.5-.08,3.44-2.77,3.12-6.57,2.17-10.27-1.12-4.33-4.11-7.58-7.03-10.79-5.36-5.9-10.86-11.77-12.35-19.96-1.39-7.64-.08-14.79,6.42-19.79,6.06-4.66,12.83-4.76,19.69-1.51,1.83.87,2.93,1.95,2.74,4.26-.24,3.06-.06,6.15-.06,9.71-1.9-1.27-3.34-2.38-4.9-3.25-3.82-2.13-7.89-1.86-10.43.56-2.43,2.32-2.9,6.12-1.26,9.99,2.25,5.28,6.54,9.03,10.11,13.3,4.63,5.54,7.99,11.55,9.26,18.74,1.42,8.04-2.51,16.82-9.89,20.32-6.69,3.17-13.31,2.3-19.52-1.65-1.18-.75-1.92-1.8-1.86-3.4.11-3.23.03-6.46.03-10.27Z"/>
        <path class="cls-3" d="M317.56,192.71c-7.23,0-14.45.02-21.68-.01-3.43-.02-4.72-1.6-3.53-4.61,2.13-5.38,3.6-10.94,5-16.52.48-1.92,1.62-2.69,3.44-2.69,13.33-.02,26.66.01,39.99-.05,1.88,0,2.29.81,2.28,2.48-.04,6.16-.02,12.31.06,18.47.03,2.25-.91,2.97-3.14,2.94-7.47-.11-14.95-.04-22.42-.04v.03Z"/>
        <path class="cls-1" d="M573.02,178.47c4.07.02,7.36,3.21,7.4,7.17.05,4-3.64,7.61-7.63,7.48-4.04-.13-7.3-3.4-7.32-7.36-.03-4.25,3.16-7.33,7.55-7.3Z"/>
        <path class="cls-3" d="M495.07,185.77c0-4.48,2.67-7.24,7.09-7.29,4.29-.05,7.67,3.24,7.6,7.39-.07,4.02-3.47,7.34-7.47,7.27-4.15-.07-7.22-3.21-7.22-7.37Z"/>
        <path class="cls-5" d="M363.36,53.45c.05,5.2-2.54,9.71-3.99,14.49-3.94,12.94-8.37,25.72-12.6,38.57-1.77,5.36-3.53,10.73-5.28,16.09-1.9,5.84-3.59,6.71-9.78,7.68-3.58.56-7.06,1.08-10.68.95-5.5-.2-7.16-2.33-6.73-7.89.58-7.52,3.81-14.25,6.03-21.26,4.07-12.88,8.48-25.65,12.9-38.41,1.31-3.79,1.93-7.82,4.1-11.34,1.97-3.2,4.5-4.97,8.44-4.87,4.2.11,8.42-.11,12.62-.32,3.92-.2,4.94,1.01,4.98,6.31Z"/>
        <path class="cls-5" d="M436.45,49.13c2.87,0,5.74-.02,8.61,0,2.95.03,3.85,1.49,2.79,4.21-3.74,9.6-6.63,19.48-9.72,29.29-.82,2.62-2.26,4.66-5.04,4.79-6.32.29-12.65.43-18.97.24-2.45-.07-3.27-2.06-2.27-4.4,3.97-9.28,6.65-18.99,9.69-28.58,1.36-4.32,2.89-5.57,7.43-5.55,2.49.01,4.99,0,7.48,0v-.02Z"/>
        <path class="cls-5" d="M171.57,89.58c-2.62,0-5.23,0-7.85,0-3.26.02-4.7-1.8-3.98-4.74,1.14-4.64,2.79-9.16,4.09-13.77,1.39-4.94,3.62-9.58,4.86-14.59.85-3.47,3.07-6.57,6.95-6.94,5.53-.53,11.11-.9,16.67.4,2.97.69,3.6,2.16,2.73,4.81-1.25,3.85-2.34,7.75-3.64,11.58-2.04,6.02-4.34,11.96-6.25,18.02-1.25,3.97-2.58,5.23-6.86,5.22-2.24,0-4.48,0-6.73,0Z"/>
        <path class="cls-4" d="M537.83,134.54c.72,5.34,1.42,10.68,2.17,16.02.17,1.21.48,2.41.73,3.61.94,4.38.94,4.25-3.51,4.37-2.89.08-3.48-.58-2.8-3.59,1.53-6.72,2.66-13.54,3.4-20.41Z"/>
      </g>
    </g>
  </g>
</svg>